<svg xmlns="http://www.w3.org/2000/svg" xmlns:xlink="http://www.w3.org/1999/xlink" width="1500" height="560" viewBox="0 0 1500 560" font-family="Helvetica Neue,Helvetica,Arial,sans-serif" role="img" aria-label="mcp-stock-server architecture: agents call tools through the MCP Gateway; the stock connector attaches an API key from Access Control; the server validates the key and calls the 24hMoney API"><rect width="1500" height="560" fill="#FFFFFF"/><defs><marker id="a-ink" viewBox="0 0 10 10" refX="9" refY="5" markerWidth="7" markerHeight="7" orient="auto-start-reverse"><path d="M0 0L10 5L0 10z" fill="#232F3E"/></marker><marker id="a-org" viewBox="0 0 10 10" refX="9" refY="5" markerWidth="7" markerHeight="7" orient="auto-start-reverse"><path d="M0 0L10 5L0 10z" fill="#FF4C00"/></marker><marker id="a-red" viewBox="0 0 10 10" refX="9" refY="5" markerWidth="7" markerHeight="7" orient="auto-start-reverse"><path d="M0 0L10 5L0 10z" fill="#DD344C"/></marker><symbol id="gn-vks" viewBox="0 0 20 20" fill="none">
  <path fill="#FF4C00" d="M19.5,11.4L18,4.9c-0.1-0.3-0.2-0.6-0.4-0.8c-0.2-0.2-0.4-0.4-0.7-0.5l-6.1-2.9c-0.3-0.1-0.6-0.2-0.9-0.2H9.9c-0.2,0-0.5,0.1-0.7,0.2L3.1,3.6C2.8,3.7,2.6,3.9,2.4,4.1C2.2,4.3,2.1,4.6,2,4.9l-1.5,6.5c-0.1,0.2-0.1,0.5,0,0.8c0,0.2,0.1,0.5,0.3,0.7l0.1,0.1l4.2,5.2c0.2,0.2,0.4,0.4,0.7,0.5C6,18.9,6.3,19,6.6,19h6.8c0.3,0,0.6-0.1,0.8-0.2c0.3-0.1,0.5-0.3,0.7-0.5l4.2-5.2c0.2-0.2,0.3-0.5,0.4-0.8C19.5,12,19.5,11.7,19.5,11.4zM18,11.9c0,0.1,0,0.1-0.1,0.2l-4.2,5.2c0,0-0.1,0.1-0.1,0.1c-0.1,0-0.1,0-0.2,0H6.6c-0.1,0-0.1,0-0.2,0c0,0-0.1-0.1-0.1-0.1L2,12c0,0,0-0.1,0-0.1c0,0,0-0.1,0-0.2l1.5-6.5c0-0.1,0-0.1,0.1-0.2c0,0,0.1-0.1,0.1-0.1L9.8,2c0,0,0.1,0,0.2,0c0.1,0,0.1,0,0.2,0l6.1,2.9c0,0,0.1,0.1,0.1,0.1c0,0,0.1,0.1,0.1,0.2l1.5,6.5C18,11.8,18,11.9,18,11.9z"></path>
  <path fill="#00B795" d="M16.1,10.9c-0.2,0-0.3,0-0.3,0h-0.1c-0.2,0-0.4,0-0.6-0.1l-0.1-0.2c0.1-0.5,0-1.1-0.1-1.6c-0.1-0.5-0.3-1-0.6-1.5l0.1-0.1c0.1-0.1,0.3-0.2,0.5-0.3l0.1-0.1c0.4-0.2,0.4-0.7,0.1-1c-0.2-0.2-0.5-0.2-0.8-0.1l-0.1,0.1l-0.2,0.2l-0.1,0.1c-0.2,0.2-0.3,0.3-0.4,0.4h-0.2c-0.8-0.8-1.8-1.2-2.9-1.4V5c0-0.2,0-0.4,0-0.6V4c0-0.4-0.3-0.6-0.6-0.6S9.4,3.5,9.4,3.9V4c0,0.1,0,0.2,0,0.3v0.1c0,0.2,0,0.4,0,0.6L9.3,5.1c-0.2,0-0.3,0.1-0.5,0.1C8,5.4,7.2,5.9,6.5,6.5H6.3C6.2,6.4,6,6.3,5.9,6.1L5.8,6L5.6,5.8L5.5,5.8C5.2,5.5,4.7,5.6,4.5,5.9C4.4,6.2,4.5,6.5,4.8,6.7l0.1,0.1l0.2,0.1L5.2,7C5.4,7,5.6,7.1,5.7,7.2v0.2c-0.6,0.9-0.8,2-0.7,3.1l-0.1,0.1c-0.2,0.1-0.4,0.1-0.6,0.1H4.2c-0.1,0-0.2,0-0.3,0l-0.1,0c-0.3,0.1-0.5,0.4-0.4,0.7C3.5,11.8,3.8,12,4.1,12h0.1l0.1,0c0.1,0,0.2-0.1,0.2-0.1l0.1,0c0.2-0.1,0.4-0.2,0.6-0.2h0.2c0.4,1,1.1,1.9,2,2.5v0.2c-0.1,0.2-0.2,0.3-0.3,0.5L7,15l-0.2,0.2c-0.1,0.3,0,0.7,0.2,0.8c0.3,0.2,0.7,0.1,0.9-0.2V15.7l0.1-0.2l0.1-0.3c0-0.2,0.1-0.3,0.2-0.4h0.2c0.9,0.3,1.8,0.4,2.7,0.1c0.2,0,0.3-0.1,0.5-0.1l0.1,0.1c0.1,0.1,0.1,0.3,0.2,0.6l0.1,0.3c0.2,0.3,0.5,0.4,0.8,0.3c0.3-0.1,0.4-0.5,0.2-0.8l-0.1-0.3c-0.1-0.2-0.2-0.4-0.3-0.5v-0.2c0.9-0.6,1.6-1.5,2-2.5h0.2c0.2,0,0.3,0.1,0.6,0.2l0.3,0.1c0.3,0.1,0.6-0.1,0.7-0.4C16.7,11.2,16.5,10.9,16.1,10.9zM9.8,9.6h0.4l0.2,0.3l-0.1,0.4L10,10.5l-0.3-0.2L9.6,9.9L9.8,9.6zM6.4,10.2c0-0.6,0.1-1.2,0.4-1.8l1.2,1v0l0.1,0.1c0,0,0,0.1,0,0.2c0,0,0,0-0.1,0L6.4,10.2zM8.5,11.4l0,0.1h0l-0.6,1.4c-0.5-0.4-0.9-0.9-1.2-1.4l1.5-0.3v0l0.1,0C8.5,11.2,8.5,11.2,8.5,11.4zM8.9,8.2L7.7,7.3c0.4-0.4,1-0.6,1.5-0.8h0.1L9.2,8.2c0,0.1-0.1,0.1-0.2,0.1L8.9,8.2zM10.8,13.5c-0.6,0.1-1.2,0.1-1.7,0L9.9,12H10l0.1,0l0.8,1.5H10.8zM11.1,8.2L11.1,8.2c-0.2,0.1-0.2,0.1-0.3,0.1v-0.2l-0.1-1.5c0.6,0.1,1.2,0.4,1.7,0.8L11.1,8.2zM12.1,12.9l-0.6-1.4v-0.1c0-0.1,0-0.1,0.1-0.2l1.7,0.3C13,12,12.6,12.5,12.1,12.9zM12.1,9.7L12,9.7c-0.1,0-0.1-0.1-0.1-0.1v-0.1l1.2-1.1c0.1,0.3,0.2,0.6,0.3,0.9c0.1,0.3,0.1,0.6,0.1,0.9L12.1,9.7z"></path>
</symbol><symbol id="mcp" viewBox="60 20 1800 1800" fill="none">
  <g stroke="#000000" stroke-width="128" stroke-linecap="round" stroke-linejoin="round">
    <path d="M193 910L920 183A258 258 0 0 1 1286 548L735 1097"/>
    <path d="M1103 365L565 903A258 258 0 0 0 930 1268L1467 729"/>
    <path d="M1286 548A258 258 0 0 1 1650 912L1015 1547Q980 1582 1015 1617L1130 1733"/>
  </g>
</symbol><symbol id="agent-runtime" viewBox="0 0 16 16" fill="none">
  <path fill="#FF4C00" d="M10,0.7H7.5c-3.2,0-5.8,2.6-5.8,5.8v4.7c0,0.4-0.1,0.8-0.3,1.2l-1.1,1.8c-0.1,0.2-0.1,0.5,0,0.8c0.1,0.2,0.4,0.4,0.7,0.4h9c3.2,0,5.8-2.6,5.8-5.8v-3C15.8,3.3,13.2,0.7,10,0.7z M14.2,9.5c0,2.3-1.9,4.2-4.2,4.2H2.3l0.4-0.6c0.3-0.6,0.5-1.2,0.5-1.9V6.5c0-2.3,1.9-4.2,4.2-4.2H10c2.3,0,4.2,1.9,4.2,4.2V9.5z"/>
  <path fill="#00B795" d="M11.2,8.7l-0.4,0.1C9.3,9,8.2,10.1,7.9,11.6L7.8,12l-0.1-0.4C7.5,10.1,6.3,9,4.9,8.7L4.5,8.7l0.4-0.1c1.5-0.3,2.6-1.4,2.9-2.9l0.1-0.4l0.1,0.4c0.3,1.5,1.4,2.6,2.9,2.9L11.2,8.7z"/>
  <path fill="#00B795" d="M12.5,5.6c-0.8,0.1-1.4,0.8-1.6,1.5c-0.1-0.8-0.8-1.4-1.5-1.5c0.8-0.1,1.4-0.8,1.5-1.6C11.1,4.8,11.7,5.4,12.5,5.6z"/>
</symbol><symbol id="policy" viewBox="0 0 20 20" fill="none">
  <!-- Policy: tài liệu rule (xanh) + khiên check (cam) — cùng style 2 màu với bộ icon GreenNode -->
  <path d="M11.5 16.25H4.25c-0.83 0-1.5-0.67-1.5-1.5V3.25c0-0.83 0.67-1.5 1.5-1.5h6.6l3.4 3.4v2.6" stroke="#00B795" stroke-width="1.5" stroke-linecap="round" stroke-linejoin="round"/>
  <path d="M10.75 1.9v2.85c0 0.41 0.34 0.75 0.75 0.75h2.75" stroke="#00B795" stroke-width="1.5" stroke-linecap="round" stroke-linejoin="round"/>
  <path d="M5.5 7.25h4.5M5.5 10.25h3.25M5.5 13.25h2.5" stroke="#00B795" stroke-width="1.5" stroke-linecap="round"/>
  <path d="M15 9.6l3.6 1.35v2.75c0 2.25-1.6 3.6-3.6 4.3c-2-0.7-3.6-2.05-3.6-4.3v-2.75z" fill="#FFFFFF" stroke="#FF4C00" stroke-width="1.5" stroke-linejoin="round"/>
  <path d="M13.5 14l1.05 1.05l2-2.1" stroke="#FF4C00" stroke-width="1.5" stroke-linecap="round" stroke-linejoin="round"/>
</symbol><symbol id="mcp-gateway" viewBox="0 0 16 16" fill="none">
  <path fill="#5B5AA8" d="M11,0.2H5C2.9,0.2,1.2,1.9,1.2,4v11c0,0.4,0.3,0.8,0.8,0.8h12c0.4,0,0.8-0.3,0.8-0.8V4C14.8,1.9,13.1,0.2,11,0.2z M13.2,14.2H2.8V4c0-1.2,1-2.2,2.2-2.2h6c1.2,0,2.2,1,2.2,2.2V14.2z"/>
  <path fill="#FF4C00" d="M11.5,9.2l-0.4,0.1c-1.7,0.3-3,1.6-3.3,3.3L7.8,13l-0.1-0.4c-0.3-1.7-1.6-3-3.3-3.3L4,9.2l0.4-0.1c1.7-0.3,3-1.6,3.3-3.3l0.1-0.4l0.1,0.4c0.3,1.7,1.6,3,3.3,3.3L11.5,9.2z"/>
  <path fill="#FF4C00" d="M12,5.2c-0.9,0.2-1.6,0.9-1.8,1.8c-0.2-0.9-0.9-1.6-1.8-1.8c0.9-0.2,1.6-0.9,1.8-1.8C10.4,4.4,11.1,5.1,12,5.2z"/>
</symbol><symbol id="inbound-auth" viewBox="0 0 20 20" fill="none">
  <!-- Inbound Auth: cửa sổ (xanh) + mũi tên đi vào + mắt xích xác thực (cam) — style 2 màu GreenNode -->
  <path d="M16.25 10.5V4.25c0-0.83-0.67-1.5-1.5-1.5H3.25c-0.83 0-1.5 0.67-1.5 1.5v10.5c0 0.83 0.67 1.5 1.5 1.5h7.25" stroke="#00B795" stroke-width="1.5" stroke-linecap="round" stroke-linejoin="round"/>
  <path d="M1.75 6.25h14.5" stroke="#00B795" stroke-width="1.5"/>
  <circle cx="11.6" cy="4.5" r="0.75" fill="#00B795"/><circle cx="13.3" cy="4.5" r="0.75" fill="#00B795"/><circle cx="15" cy="4.5" r="0.75" fill="#00B795"/>
  <path d="M4.5 11h5.25M7.75 8.75L10 11l-2.25 2.25" stroke="#FF4C00" stroke-width="1.5" stroke-linecap="round" stroke-linejoin="round"/>
  <g stroke="#FF4C00" stroke-width="1.5" stroke-linecap="round">
    <path d="M14.1 13.1l1.3-1.3a1.9 1.9 0 0 1 2.7 2.7l-1.3 1.3"/>
    <path d="M16.1 17.1l-1.3 1.3a1.9 1.9 0 0 1 -2.7-2.7l1.3-1.3"/>
    <path d="M14.2 16.3l2.1-2.1"/>
  </g>
</symbol></defs><rect x="20" y="20" width="1200" height="440" fill="none" stroke="#0DB14B" stroke-width="1.5"/><rect x="20" y="20" width="26" height="26" fill="#FFFFFF" stroke="#0DB14B" stroke-width="1.5"/><circle cx="33" cy="33" r="7" fill="none" stroke="#0DB14B" stroke-width="3.2"/><circle cx="33" cy="33" r="2.6" fill="#333333"/><text x="54" y="38" font-size="12.5" font-weight="700" fill="#0A8F3C" text-anchor="start">AgentBase Platform — managed by GreenNode</text><rect x="55.75" y="210.75" width="56.5" height="56.5" rx="11" fill="#FFFFFF" stroke="#CFD6DD" stroke-width="1.5"/><use href="#agent-runtime" xlink:href="#agent-runtime" x="62" y="217" width="44" height="44"/><text x="84" y="279" font-size="12" font-weight="700" fill="#232F3E" text-anchor="middle">Agent</text><text x="84" y="294" font-size="10.5" font-weight="400" fill="#545B64" text-anchor="middle">travel-buddy · zalo-bot …</text><rect x="555.75" y="35.75" width="56.5" height="56.5" rx="11" fill="#FFFFFF" stroke="#CFD6DD" stroke-width="1.5"/><g transform="translate(584 64) scale(1.375) translate(-584 -64)"><circle cx="577" cy="64" r="6.5" fill="none" stroke="#00682E" stroke-width="2.2"/><path d="M583.5 64H597M592 64v5M596.5 64v4" fill="none" stroke="#00682E" stroke-width="2.2" stroke-linecap="round" stroke-linejoin="round"/></g><text x="584" y="104" font-size="12" font-weight="700" fill="#232F3E" text-anchor="middle">Access Control</text><text x="584" y="119" font-size="10.5" font-weight="400" fill="#545B64" text-anchor="middle">secret: stock-mcp-key</text><rect x="300" y="150" width="450" height="186" fill="#F8F7FC" stroke="#5B5AA8" stroke-width="1.5"/><rect x="300" y="150" width="26" height="26" fill="#FFFFFF" stroke="#5B5AA8" stroke-width="1.5"/><use href="#mcp-gateway" xlink:href="#mcp-gateway" x="304" y="154" width="18" height="18"/><text x="334" y="168" font-size="12.5" font-weight="700" fill="#5B5AA8" text-anchor="start">MCP Gateway</text><text x="740" y="168" font-size="11" font-weight="700" fill="#232F3E" text-anchor="end">MCP Connectors</text><rect x="312" y="188" width="40" height="40" rx="8" fill="#FFFFFF" stroke="#CFD6DD" stroke-width="1.2"/><use href="#inbound-auth" xlink:href="#inbound-auth" x="315" y="191" width="34" height="34"/><text x="358" y="213" font-size="11.5" font-weight="700" fill="#232F3E" text-anchor="start">Inbound Auth</text><rect x="312" y="252" width="40" height="40" rx="8" fill="#FFFFFF" stroke="#CFD6DD" stroke-width="1.2"/><use href="#policy" xlink:href="#policy" x="315" y="255" width="34" height="34"/><text x="358" y="277" font-size="11.5" font-weight="700" fill="#232F3E" text-anchor="start">Policy Group</text><polyline points="332,228 332,252" fill="none" stroke="#232F3E" stroke-width="1.6" stroke-linejoin="round" marker-end="url(#a-ink)"/><text x="312" y="328" font-size="10.5" font-weight="600" fill="#5B5AA8" text-anchor="start">Network: Public</text><rect x="470" y="176" width="270" height="56" rx="4" fill="#FFFFFF" stroke="#9AA5B1" stroke-width="1.2"/><use href="#mcp" xlink:href="#mcp" x="479" y="186" width="36" height="36"/><text x="522" y="194" font-size="12" font-weight="700" fill="#232F3E" font-family="Menlo,Consolas,monospace">stock</text><text x="522" y="209" font-size="10.5" font-weight="400" fill="#545B64" text-anchor="start">URL: MCP runtime endpoint</text><text x="522" y="223" font-size="10.5" font-weight="400" fill="#545B64" text-anchor="start">Outbound: API Key · 2LO</text><polyline points="332,292 332,306 455,306" fill="none" stroke="#232F3E" stroke-width="1.6"/><polyline points="455,204 455,306" fill="none" stroke="#232F3E" stroke-width="1.6"/><polyline points="455,204 470,204" fill="none" stroke="#232F3E" stroke-width="1.6" stroke-linejoin="round" marker-end="url(#a-ink)"/><rect x="800" y="120" width="400" height="320" fill="#FAFBFC" stroke="#7D8998" stroke-width="1.5" stroke-dasharray="4 3"/><text x="808" y="138" font-size="12.5" font-weight="700" fill="#545B64" text-anchor="start">Agent Runtime · vn-stock-mcp</text><rect x="825.75" y="175.75" width="56.5" height="56.5" rx="11" fill="#FFFFFF" stroke="#CFD6DD" stroke-width="1.5"/><use href="#inbound-auth" xlink:href="#inbound-auth" x="832" y="182" width="44" height="44"/><text x="854" y="244" font-size="12" font-weight="700" fill="#232F3E" text-anchor="middle">API key check</text><text x="854" y="259" font-size="10.5" font-weight="400" fill="#545B64" text-anchor="middle">fail-closed · 401 / 503</text><rect x="1005.75" y="175.75" width="56.5" height="56.5" rx="11" fill="#FFFFFF" stroke="#CFD6DD" stroke-width="1.5"/><use href="#mcp" xlink:href="#mcp" x="1012" y="182" width="44" height="44"/><text x="1034" y="244" font-size="12" font-weight="700" fill="#232F3E" text-anchor="middle">13 MCP tools</text><text x="1034" y="259" font-size="10.5" font-weight="400" fill="#545B64" text-anchor="middle">/mcp · FastMCP</text><rect x="820" y="300" width="360" height="120" rx="4" fill="#FFFFFF" stroke="#7D8998" stroke-width="1"/><rect x="820" y="300" width="360" height="24" rx="4" fill="#F2F3F3"/><rect x="820" y="320" width="360" height="4" fill="#F2F3F3"/><text x="830" y="316" font-size="11" font-weight="700" fill="#232F3E" text-anchor="start">Tools</text><text x="830" y="342" font-size="10.5" font-weight="400" fill="#545B64" text-anchor="start">Market: top · gainers · losers · active · quote</text><text x="830" y="359" font-size="10.5" font-weight="400" fill="#545B64" text-anchor="start">Company: search · profile · valuation</text><text x="830" y="376" font-size="10.5" font-weight="400" fill="#545B64" text-anchor="start">History: price · foreign · dividend · plan · news</text><rect x="1250" y="20" width="230" height="440" fill="none" stroke="#7D8998" stroke-width="1.5" stroke-dasharray="6 4"/><rect x="1250" y="20" width="26" height="26" fill="#7D8998"/><g transform="translate(1250 20) scale(0.5417)"><circle cx="24" cy="24" r="12" fill="none" stroke="#FFFFFF" stroke-width="2"/><path d="M12 24h24" fill="none" stroke="#FFFFFF" stroke-width="2" stroke-linecap="round" stroke-linejoin="round"/><path d="M24 12a6 12 0 0 0 0 24a6 12 0 0 0 0 -24" fill="none" stroke="#FFFFFF" stroke-width="1.6" stroke-linecap="round" stroke-linejoin="round"/></g><text x="1284" y="38" font-size="12.5" font-weight="700" fill="#232F3E" text-anchor="start">Internet</text><rect x="1305.75" y="175.75" width="56.5" height="56.5" rx="11" fill="#FFFFFF" stroke="#CFD6DD" stroke-width="1.5"/><g transform="translate(1334 204) scale(1.375) translate(-1334 -204)"><circle cx="1334" cy="204" r="12" fill="none" stroke="#7D8998" stroke-width="2"/><path d="M1322 204h24" fill="none" stroke="#7D8998" stroke-width="2" stroke-linecap="round" stroke-linejoin="round"/><path d="M1334 192a6 12 0 0 0 0 24a6 12 0 0 0 0 -24" fill="none" stroke="#7D8998" stroke-width="1.6" stroke-linecap="round" stroke-linejoin="round"/></g><text x="1334" y="244" font-size="12" font-weight="700" fill="#232F3E" text-anchor="middle">24hMoney API</text><text x="1334" y="259" font-size="10.5" font-weight="400" fill="#545B64" text-anchor="middle">public · unofficial</text><polyline points="113,239 250,239 250,208 314,208" fill="none" stroke="#232F3E" stroke-width="1.6" stroke-linejoin="round" marker-end="url(#a-ink)"/><text x="180" y="231" font-size="10.5" font-weight="600" fill="#232F3E" text-anchor="middle" style="paint-order:stroke;stroke:#FFFFFF;stroke-width:4px;stroke-linejoin:round">tools/call</text><polyline points="584,125 584,176" fill="none" stroke="#232F3E" stroke-width="1.6" stroke-linejoin="round" marker-end="url(#a-ink)"/><text x="594" y="142" font-size="10.5" font-weight="600" fill="#232F3E" text-anchor="start" style="paint-order:stroke;stroke:#FFFFFF;stroke-width:4px;stroke-linejoin:round">API key</text><polyline points="740,204 825,204" fill="none" stroke="#232F3E" stroke-width="1.6" stroke-linejoin="round" marker-end="url(#a-ink)"/><text x="785" y="196" font-size="10.5" font-weight="600" fill="#232F3E" text-anchor="middle" style="paint-order:stroke;stroke:#FFFFFF;stroke-width:4px;stroke-linejoin:round">X-Api-Key</text><polyline points="883,204 1005,204" fill="none" stroke="#232F3E" stroke-width="1.6" stroke-linejoin="round" marker-end="url(#a-ink)"/><text x="944" y="196" font-size="10.5" font-weight="600" fill="#232F3E" text-anchor="middle" style="paint-order:stroke;stroke:#FFFFFF;stroke-width:4px;stroke-linejoin:round">OK</text><polyline points="1063,204 1305,204" fill="none" stroke="#232F3E" stroke-width="1.6" stroke-linejoin="round" marker-end="url(#a-ink)"/><text x="1270" y="196" font-size="10.5" font-weight="600" fill="#232F3E" text-anchor="middle" style="paint-order:stroke;stroke:#FFFFFF;stroke-width:4px;stroke-linejoin:round">HTTPS</text><circle cx="180" cy="255" r="10" fill="#232F3E" stroke="#FFFFFF" stroke-width="2"/><text x="180" y="259" font-size="11" font-weight="700" fill="#FFFFFF" text-anchor="middle">1</text><circle cx="584" cy="160" r="10" fill="#232F3E" stroke="#FFFFFF" stroke-width="2"/><text x="584" y="164" font-size="11" font-weight="700" fill="#FFFFFF" text-anchor="middle">2</text><circle cx="785" cy="220" r="10" fill="#232F3E" stroke="#FFFFFF" stroke-width="2"/><text x="785" y="224" font-size="11" font-weight="700" fill="#FFFFFF" text-anchor="middle">3</text><circle cx="944" cy="220" r="10" fill="#232F3E" stroke="#FFFFFF" stroke-width="2"/><text x="944" y="224" font-size="11" font-weight="700" fill="#FFFFFF" text-anchor="middle">4</text><circle cx="1150" cy="220" r="10" fill="#232F3E" stroke="#FFFFFF" stroke-width="2"/><text x="1150" y="224" font-size="11" font-weight="700" fill="#FFFFFF" text-anchor="middle">5</text><text x="20" y="500" font-size="12" font-weight="700" fill="#232F3E" text-anchor="start">One image, three deployment targets:</text><rect x="225.75" y="467.75" width="56.5" height="56.5" rx="11" fill="#FFFFFF" stroke="#CFD6DD" stroke-width="1.5"/><use href="#agent-runtime" xlink:href="#agent-runtime" x="232" y="474" width="44" height="44"/><text x="288" y="492" font-size="11.5" font-weight="700" fill="#232F3E" text-anchor="start">Agent Runtime</text><text x="288" y="508" font-size="10.5" font-weight="400" fill="#545B64" text-anchor="start">gateway Public</text><rect x="555.75" y="467.75" width="56.5" height="56.5" rx="11" fill="#FFFFFF" stroke="#CFD6DD" stroke-width="1.5"/><use href="#gn-vks" xlink:href="#gn-vks" x="562" y="474" width="44" height="44"/><text x="618" y="492" font-size="11.5" font-weight="700" fill="#232F3E" text-anchor="start">vServer / VKS in the customer VPC</text><text x="618" y="508" font-size="10.5" font-weight="400" fill="#545B64" text-anchor="start">gateway Private</text><rect x="955.75" y="467.75" width="56.5" height="56.5" rx="11" fill="#FFFFFF" stroke="#CFD6DD" stroke-width="1.5"/><g transform="translate(984 496) scale(1.375) translate(-984 -496)"><path d="M974 508V485h13v23M987 492h8v16M971 508h27" fill="none" stroke="#7D8998" stroke-width="2" stroke-linecap="round" stroke-linejoin="round"/><path d="M978 490h5M978 495h5M978 500h5" fill="none" stroke="#7D8998" stroke-width="1.6" stroke-linecap="round" stroke-linejoin="round"/></g><text x="1018" y="492" font-size="11.5" font-weight="700" fill="#232F3E" text-anchor="start">On-premise (VPN / Interconnect)</text><text x="1018" y="508" font-size="10.5" font-weight="400" fill="#545B64" text-anchor="start">gateway Private + Route CIDRs</text><line x1="30" y1="546" x2="64" y2="546" stroke="#232F3E" stroke-width="1.6"/><text x="72" y="550" font-size="10.5" font-weight="400" fill="#545B64" text-anchor="start">request / data path</text></svg>